<?xml version="1.0" standalone="no"?>
<!DOCTYPE svg PUBLIC "-//W3C//DTD SVG 20010904//EN"
 "http://www.w3.org/TR/2001/REC-SVG-20010904/DTD/svg10.dtd">
<svg version="1.0" xmlns="http://www.w3.org/2000/svg"
 width="1200.000000pt" height="1200.000000pt" viewBox="0 0 1200.000000 1200.000000"
 preserveAspectRatio="xMidYMid meet">
<metadata>
Created by potrace 1.14, written by Peter Selinger 2001-2017
</metadata>
<g transform="translate(0.000000,1200.000000) scale(0.100000,-0.100000)"
fill="#000000" stroke="none">
<path d="M2360 11972 l-66 -3 0 -1329 c1 -1183 2 -1330 16 -1331 8 -1 277 -2
597 -3 321 -1 585 -4 587 -7 4 -4 -61 -203 -81 -249 -3 -8 -7 -19 -9 -25 -1
-5 -34 -100 -74 -210 -39 -110 -85 -238 -102 -285 -16 -47 -38 -107 -48 -135
-33 -91 -127 -357 -195 -550 -37 -104 -75 -212 -85 -240 -11 -27 -44 -122 -75
-210 -85 -240 -264 -743 -285 -800 -21 -58 -100 -278 -193 -545 -36 -102 -129
-365 -208 -585 -78 -220 -163 -461 -189 -535 -27 -74 -69 -193 -95 -265 -25
-71 -50 -141 -55 -155 -4 -14 -31 -90 -60 -170 -28 -80 -76 -212 -105 -295
-29 -82 -123 -348 -210 -590 -86 -242 -172 -485 -192 -540 -71 -200 -77 -214
-98 -219 -11 -3 -271 -6 -577 -6 l-558 0 0 -1335 c0 -1266 1 -1335 17 -1336
61 -3 5000 -4 5010 -1 10 3 13 283 13 1338 l0 1334 -521 0 -521 0 7 28 c3 16
70 222 148 458 l143 429 1696 3 1696 2 17 -42 c28 -71 285 -847 285 -863 0
-13 -69 -15 -520 -15 l-520 0 0 -1334 0 -1334 44 -3 c36 -3 4922 -3 4978 0 16
1 17 89 17 1336 l1 1335 -574 0 -575 0 -21 58 c-12 31 -33 89 -47 127 -61 171
-86 242 -151 425 -39 107 -106 296 -150 420 -162 456 -305 859 -364 1025 -33
94 -72 206 -88 250 -16 44 -66 184 -110 310 -45 127 -117 329 -160 450 -74
207 -113 317 -175 495 -14 41 -30 84 -35 95 -5 11 -36 97 -69 190 -94 267
-319 902 -350 990 -16 44 -43 118 -59 165 -17 47 -53 148 -80 225 -28 77 -57
160 -66 185 -8 25 -33 95 -54 155 -151 419 -361 1015 -364 1030 -3 18 18 19
597 19 l600 1 3 1333 2 1332 -27 1 c-77 2 -7257 4 -7313 1z m3700 -3563 c34
-96 88 -253 120 -349 32 -96 105 -308 160 -470 56 -162 135 -396 176 -520 42
-124 79 -234 84 -245 14 -34 85 -238 164 -475 41 -124 78 -233 81 -242 6 -16
-47 -17 -844 -16 -633 1 -851 5 -851 13 0 7 63 196 139 421 283 832 463 1361
488 1434 41 118 204 593 210 613 3 10 7 16 9 14 2 -2 31 -82 64 -178z"/>
</g>
</svg>
